<svg width="24" height="25" viewBox="0 0 24 25" fill="none" xmlns="http://www.w3.org/2000/svg">
<path d="M21.7255 2.9853C21.5888 2.99115 21.4563 3.03427 21.3424 3.11001C21.2284 3.18575 21.1374 3.29122 21.079 3.41499L18.8876 7.7978L14.7841 6.1562L15.4658 3.97358C15.5029 3.86025 15.5124 3.73969 15.4936 3.62193C15.4748 3.50416 15.4282 3.39258 15.3576 3.29643C15.2871 3.20029 15.1946 3.12235 15.0879 3.06909C14.9812 3.01583 14.8633 2.98878 14.7441 2.99019C14.584 2.9921 14.4288 3.04517 14.301 3.14163C14.1733 3.2381 14.0798 3.37289 14.0341 3.52632L11.6494 11.1582C10.5193 11.3306 9.52895 11.7352 8.82416 12.4453C7.93877 13.3373 7.40065 14.5175 7.03021 15.79C6.53663 17.4862 6.07609 19.1892 4.67572 20.5H2.24994C2.15056 20.4985 2.05188 20.5169 1.95966 20.554C1.86743 20.591 1.78349 20.646 1.71271 20.7158C1.64194 20.7856 1.58573 20.8688 1.54737 20.9605C1.50901 21.0522 1.48926 21.1506 1.48926 21.25C1.48926 21.3493 1.50901 21.4478 1.54737 21.5394C1.58573 21.6311 1.64194 21.7143 1.71271 21.7841C1.78349 21.8539 1.86743 21.9089 1.95966 21.9459C2.05188 21.983 2.15056 22.0014 2.24994 22H4.97553H5.24994H7.74994C10.8252 22 13.1937 21.5548 14.8798 20.5634C16.5659 19.572 17.4999 17.9397 17.4999 16C17.4999 15.4717 17.3505 14.9875 17.1972 14.5087C17.2242 14.4719 17.2477 14.4327 17.2675 14.3916L19.8671 9.19331C19.9144 9.12733 19.9507 9.05412 19.9745 8.97651L22.4208 4.08491C22.4825 3.9682 22.5122 3.8373 22.507 3.70543C22.5019 3.57355 22.462 3.44537 22.3915 3.33382C22.321 3.22227 22.2223 3.13131 22.1053 3.07012C21.9884 3.00893 21.8574 2.97967 21.7255 2.9853ZM14.3349 7.59175L18.2148 9.14351L16.331 12.9101C15.563 11.9596 14.4829 11.3397 13.2236 11.1474L14.3349 7.59175ZM12.4999 12.5C14.4415 12.5 15.9999 14.0584 15.9999 16C15.9999 17.5042 15.434 18.4969 14.1201 19.2695C12.8061 20.0421 10.6747 20.5 7.74994 20.5H6.68842C7.69353 19.0866 8.09161 17.5091 8.46967 16.2099C8.79923 15.0779 9.2615 14.1337 9.88861 13.5019C10.5157 12.8701 11.2927 12.5 12.4999 12.5Z" fill="white"/>
</svg>
