<svg width="53" height="63" viewBox="0 0 53 63" fill="none" xmlns="http://www.w3.org/2000/svg">
<path d="M33.2393 33.2306C33.2196 32.9795 33.1848 32.7245 33.1348 32.4773C32.9156 31.3892 32.4383 30.3741 32.0255 29.3437C31.8229 28.8418 31.6355 28.3018 31.7291 27.7724C31.8639 27.0184 32.5233 26.4763 32.8063 25.7638C33.0968 25.0284 32.9274 24.1267 32.3829 23.5534C31.8879 23.0294 31.162 22.8295 30.4635 22.934C29.7764 23.0386 29.2086 23.7556 28.7922 24.2743C28.5962 24.5197 28.4161 24.7783 28.2532 25.0475C27.3064 26.6121 25.4167 27.6622 23.6024 27.8921C22.3762 28.0437 21.1518 28.9527 21.0677 30.19C21.0604 30.3118 21.0607 30.4374 21.0078 30.548C20.9436 30.6813 20.8071 30.7616 20.6858 30.8495C20.1778 31.2124 19.849 31.8146 19.8126 32.4389C19.7981 32.7016 19.8291 32.968 19.7576 33.2194C19.7049 33.3908 19.6065 33.5433 19.5272 33.7034C19.2476 34.2788 19.2341 34.9412 19.2244 35.5844C19.215 36.3952 19.2325 37.282 19.7581 37.8973C20.3104 38.5392 21.2374 38.6624 22.0806 38.725C22.3693 38.7471 22.658 38.7616 22.9354 38.837C23.2432 38.9161 23.5246 39.0639 23.8135 39.1963C24.8782 39.6999 26.0298 40.0738 27.2071 40.0822C29.0452 40.0965 30.8505 39.1708 31.9671 37.7101C32.9247 36.444 33.3686 34.8137 33.2393 33.2306Z" fill="white"/>
<path d="M32.5906 10.7132L32.5908 10.7129C35.0372 6.14293 37.4759 3.48006 39.9778 2.42843C42.6747 1.29484 45.0437 2.17495 46.7906 3.6326C48.6803 5.20739 49.3723 7.32779 49.1151 9.52955C48.8681 11.6444 47.7638 13.7737 46.2168 15.6828C45.1526 16.9962 44.7985 18.7206 45.0427 20.7905C45.2885 22.8744 46.13 25.1618 47.2662 27.3597C49.7257 32.1136 53.1174 41.8145 46.8747 51.1311L46.8746 51.1313C44.4577 54.7375 41.4594 57.8294 37.4998 59.5567C33.5103 61.2971 28.746 61.5651 22.9793 59.8865C21.7377 59.5251 20.9702 58.5934 20.5023 57.6838C20.0379 56.781 19.7705 55.7198 19.5961 54.725C19.4189 53.7145 19.3196 52.6595 19.242 51.7295C19.226 51.5377 19.211 51.3532 19.1966 51.176C19.1916 51.1141 19.1867 51.0531 19.1818 50.993C16.5657 51.8225 13.2213 51.8472 9.19129 50.4588C6.11989 49.402 4.11919 47.9792 3.04253 46.2375L32.5906 10.7132ZM32.5906 10.7132C31.7873 12.2145 31.1982 13.6978 30.7771 15.1326C30.3529 16.5786 29.3205 17.9377 27.9817 18.8465M32.5906 10.7132L27.9817 18.8465M23.4709 39.78C23.1256 40.9528 22.3204 41.9076 21.0949 42.5183C18.8327 43.6457 16.068 43.7117 13.5637 42.8507C11.0601 41.99 8.97026 40.2573 7.95723 37.9806L7.95638 37.9787C7.39351 36.718 5.43535 35.9971 4.27166 37.4871C3.71571 38.199 2.8804 39.4293 2.43085 40.929C1.97136 42.4619 1.89235 44.3798 3.04203 46.2367L23.4709 39.78ZM23.4709 39.78C21.3146 40.3113 19.0089 40.0506 16.9949 38.9924L16.9911 38.9904C13.7275 37.2648 11.5883 35.1355 10.2114 33.2492L10.2094 33.2465C9.4145 32.1528 8.89222 30.9258 8.65448 29.6502C8.09983 26.7185 9.03539 23.567 11.4506 21.4697C12.954 20.1614 14.8586 19.4072 17.1779 19.2817L23.4709 39.78ZM27.9817 18.8465C26.6443 19.7543 25.137 20.1263 23.7812 19.8405M27.9817 18.8465L23.7812 19.8405M23.7812 19.8405C21.6442 19.3899 19.4357 19.1591 17.1782 19.2816L23.7812 19.8405ZM20.4628 48.6476L20.501 48.7146L20.4628 48.6476Z" fill="#EDE823" stroke="white" stroke-width="3.29669"/>
<path d="M25.2523 37.4804C25.2612 37.4977 25.2669 37.5165 25.2692 37.5358C25.5908 40.2864 24.3776 42.7279 21.8378 43.9898C16.4103 46.6947 8.91866 44.175 6.45887 38.6469C6.33665 38.3732 6.22963 38.1032 6.14161 37.8408C5.05773 34.6905 6.24962 32.5087 7.62777 31.1462C8.81433 29.9732 10.5657 30.9315 11.5467 32.2812C12.7891 33.9871 14.7422 35.9385 17.7692 37.5333C19.9824 38.6962 22.6218 38.6856 24.829 37.5114L25.0325 37.4088C25.113 37.3682 25.2111 37.4002 25.2523 37.4804Z" fill="#EDE823"/>
<path d="M14.9933 54.7601C13.3569 54.8975 11.4008 54.7654 9.1705 54.3486C6.69161 53.8829 5.29766 52.8388 4.55369 51.621C3.12741 49.2863 7.14782 48.0034 9.73383 48.8965C14.5693 50.5624 18.1241 49.9784 20.4685 48.6438C20.5049 48.623 20.5509 48.6351 20.5725 48.671C20.5771 48.6785 20.5803 48.6869 20.582 48.6955C21.3049 52.2789 19.2027 54.4072 14.9933 54.7601Z" fill="#EDE823"/>
<path d="M30.2928 60.0269C25.7622 60.0385 20.6125 58.491 14.6877 55.3431L14.566 55.2787C14.2466 55.1082 14.124 54.7089 14.2941 54.3849C14.4642 54.0647 14.8626 53.9419 15.1859 54.1124L15.3114 54.1806C22.7839 58.1467 28.9167 59.4861 34.0556 58.2778C38.2533 57.2889 41.8198 54.5278 44.9599 49.8419C50.5288 41.5299 47.5141 32.8516 45.2166 28.4193C43.8427 25.7622 43.0123 23.2864 42.7484 21.0604C42.4223 18.2978 42.9861 16.0012 44.4209 14.2276C45.5074 12.8888 48.7768 8.29384 45.3098 5.40609C44.1415 4.43084 42.9366 4.05709 41.7258 4.29237C39.4445 4.73592 37.0547 7.2656 34.6244 11.8013C32.058 16.5962 31.9557 21.145 32.3202 24.113C32.5103 25.6579 32.8362 26.8674 33.0735 27.6129C33.1845 27.959 32.9956 28.3325 32.6465 28.4437C32.3012 28.555 31.9285 28.3656 31.8175 28.0157C31.561 27.2171 31.2159 25.9238 31.0143 24.2762C30.6264 21.1141 30.7356 16.276 33.4645 11.1762C36.0914 6.27461 38.7845 3.52339 41.4794 2.99505C43.0964 2.6788 44.6699 3.14677 46.1579 4.38764C49.0769 6.82384 48.8063 10.9087 45.4484 15.0547C42.4463 18.7621 44.7475 24.637 46.3886 27.8073C48.8158 32.4981 52.0027 41.6974 46.0555 50.5737C42.7225 55.5494 38.8943 58.49 34.3589 59.556C33.0571 59.8676 31.7055 60.0233 30.2928 60.0269Z" fill="#231F20"/>
<path d="M21.2969 39.0544C19.9791 39.0577 18.6643 38.7451 17.4627 38.1126C14.7893 36.7072 12.62 34.8743 11.0117 32.6632C10.3143 31.7057 9.84828 30.6298 9.62885 29.4694C9.11687 26.7682 10.063 23.9872 12.1016 22.2159C13.4581 21.0363 15.1844 20.381 17.231 20.2692C22.6811 19.9737 27.9433 21.8843 31.9193 23.5864C31.9231 23.588 31.9272 23.589 31.9309 23.5908C31.9344 23.5925 31.9383 23.5934 31.9419 23.5948C32.269 23.7291 32.4345 24.0994 32.3107 24.4329C32.1863 24.7757 31.807 24.948 31.4648 24.8233C31.459 24.8203 31.4464 24.8152 31.4357 24.8113C31.4299 24.8091 31.4242 24.806 31.4184 24.8041C31.4135 24.8024 31.4093 24.7996 31.4046 24.7976C27.558 23.1562 22.4827 21.3065 17.299 21.586C15.5257 21.6819 14.1067 22.2146 12.9624 23.2109C11.28 24.6768 10.496 26.9817 10.9232 29.2225C11.108 30.1888 11.4938 31.0861 12.0769 31.8878C13.567 33.9318 15.5841 35.6318 18.0749 36.9425C20.0917 38.0018 22.4961 37.9969 24.5122 36.9261C24.517 36.9235 24.5215 36.9202 24.5267 36.9185C24.5323 36.9166 24.5373 36.9132 24.5426 36.9106L26.1617 36.0997C26.4879 35.9352 26.8832 36.0674 27.0435 36.3943C27.2077 36.7212 27.0758 37.1174 26.7496 37.2781L25.1301 38.0892C23.9278 38.7279 22.6147 39.051 21.2969 39.0544Z" fill="#231F20"/>
<path d="M23.9831 31.1417C23.9452 31.1418 23.9072 31.138 23.8692 31.1305C23.512 31.0705 23.2719 30.7286 23.3318 30.3706C23.3467 30.2869 23.71 28.28 25.5193 27.4342C27.0631 26.7147 29.1072 27.0863 31.5946 28.5454C31.9065 28.7311 32.0138 29.1343 31.8285 29.4469C31.6433 29.7595 31.241 29.8671 30.9291 29.6813C28.8677 28.4724 27.1882 28.1075 26.073 28.628C24.9009 29.1753 24.6311 30.5767 24.6273 30.5919C24.575 30.9156 24.2945 31.1409 23.9831 31.1417Z" fill="#231F20"/>
<path d="M17.0666 45.7412C15.5969 45.745 14.0924 45.4862 12.6404 44.9646C9.54625 43.8496 7.07216 41.6445 5.85754 38.9146C5.73149 38.6295 5.61681 38.3367 5.51735 38.0515C4.34276 34.6402 5.65071 32.2732 6.95357 30.8881C8.32838 29.4268 9.95967 28.7604 10.028 28.7335C10.3656 28.5995 10.7496 28.7622 10.8834 29.1006C11.0171 29.439 10.8548 29.82 10.5172 29.9579C10.2896 30.0499 4.92541 32.294 6.75809 37.6258C6.84228 37.8768 6.94166 38.1278 7.05243 38.3787C8.12191 40.7854 10.3181 42.7324 13.0815 43.7264C15.9628 44.762 19.0424 44.6438 21.5419 43.4003C23.7683 42.2908 24.9134 40.1183 24.6069 37.5879C24.5642 37.2264 24.8216 36.8984 25.1823 36.8556C25.543 36.8128 25.8702 37.0708 25.9129 37.4323C26.2892 40.5449 24.8719 43.2167 22.1259 44.5864C20.586 45.3478 18.8477 45.7367 17.0666 45.7412Z" fill="#231F20"/>
<path d="M15.334 50.5761C13.6896 50.5803 11.7559 50.2883 9.51711 49.5175C6.7576 48.5692 4.8631 47.2875 3.88689 45.7142C1.42347 41.7429 5.49525 37.5531 5.66949 37.3738C5.92706 37.1143 6.34101 37.1133 6.5999 37.3714C6.8588 37.6296 6.85986 38.0445 6.60608 38.304C6.56063 38.3497 3.09493 41.9365 5.00542 45.0186C5.81766 46.3297 7.48002 47.4216 9.94307 48.2718C15.0554 50.0325 18.3418 49.1144 20.1999 48.0363C22.0201 46.9811 22.9429 45.5057 23.1986 44.4773C23.3113 44.0241 23.2989 43.6244 23.1693 43.4154C22.9786 43.1076 23.0687 42.7001 23.3796 42.5052C23.6867 42.3103 24.0933 42.4044 24.2878 42.716C24.6119 43.2367 24.6822 43.9787 24.4792 44.7976C24.1597 46.0887 23.0402 47.9186 20.8636 49.1803C19.6084 49.9029 17.7911 50.5698 15.334 50.5761Z" fill="#231F20"/>
<path d="M13.7348 55.4749C12.3259 55.4785 10.7571 55.3188 9.05112 54.9996C6.49787 54.5189 4.74051 53.4006 3.82848 51.6786C2.29059 48.7669 3.78171 45.2575 3.84589 45.1089C3.98934 44.7736 4.38011 44.6203 4.71088 44.7679C5.04544 44.9117 5.19454 45.2996 5.05109 45.6349C5.03977 45.6654 3.74878 48.7251 4.9928 51.0705C5.7102 52.4199 7.15557 53.3068 9.29087 53.7087C11.4338 54.1105 13.3329 54.2465 14.939 54.113C17.0576 53.9363 18.6016 53.2776 19.3964 52.2137C20.036 51.3556 20.2192 50.217 19.9346 48.8247C19.8615 48.4671 20.0923 48.1201 20.4491 48.0469C20.8059 47.9736 21.1521 48.2049 21.2251 48.5625C21.5866 50.3392 21.3284 51.8357 20.4542 53.0065C19.4134 54.4022 17.5964 55.2176 15.0525 55.4296C14.6272 55.4536 14.1905 55.4737 13.7348 55.4749Z" fill="#231F20"/>
<path d="M23.2933 54.7045C23.0619 53.3234 22.9938 51.9267 22.9941 50.5297C23.0057 49.1366 23.0933 47.7433 23.2606 46.3573C23.4204 44.9714 23.6561 43.5968 23.9565 42.2333C24.0316 41.8906 24.1104 41.5516 24.1931 41.2126C24.2796 40.8737 24.3699 40.5347 24.464 40.1995C24.6559 39.5253 24.8631 38.8548 25.0931 38.1919C25.3192 37.5291 25.5796 36.8661 25.8741 36.2221C26.1649 35.5781 26.4861 34.9454 26.8301 34.3279C27.1741 33.7104 27.5524 33.1157 27.9458 32.5323C28.3431 31.9489 28.7518 31.3807 29.1947 30.8353C29.6339 30.2861 30.0844 29.7558 30.554 29.237C31.0274 28.7219 31.5122 28.222 32.0085 27.7374C33.0124 26.7718 34.0544 25.8557 35.1498 25.0117C35.2748 24.9162 35.4496 24.9386 35.5449 25.0639C35.6325 25.1779 35.6215 25.334 35.523 25.4332C34.5761 26.4253 33.633 27.4097 32.7394 28.4397C32.2888 28.9509 31.8534 29.4696 31.4332 29.9998C31.0092 30.5262 30.5966 31.0639 30.2069 31.6092C29.8171 32.1583 29.435 32.7112 29.0756 33.2792C28.7163 33.8473 28.3836 34.4267 28.0623 35.0137C27.7448 35.6007 27.4463 36.199 27.1782 36.8087C26.9102 37.4184 26.6725 38.0395 26.4424 38.6719C25.5489 41.2092 24.9252 43.86 24.4725 46.5369C24.2519 47.8773 24.0731 49.2252 23.9626 50.5767C23.8483 51.9321 23.7986 53.2911 23.8438 54.646L23.8438 54.6498C23.848 54.8059 23.7269 54.9356 23.5712 54.9436C23.4383 54.9439 23.3165 54.8415 23.2933 54.7045Z" fill="#231F20"/>
<path d="M19.8324 26.6532C20.2201 26.7626 20.5699 26.9177 20.9159 27.0919C21.2581 27.2662 21.589 27.4632 21.9086 27.6794C22.5439 28.1079 23.13 28.6164 23.6631 29.1784C24.1886 29.748 24.6687 30.371 25.0541 31.059C25.428 31.7546 25.711 32.5113 25.7965 33.2952C25.8082 33.4132 25.7249 33.5199 25.6072 33.5317C25.5292 33.5393 25.4584 33.5069 25.4125 33.4486C25.4105 33.446 25.4084 33.4435 25.406 33.4411C25.4033 33.4384 25.4008 33.4354 25.3985 33.4323C24.9652 32.8262 24.5395 32.2693 24.0836 31.7352C23.6151 31.2035 23.1315 30.6909 22.6327 30.1859L21.0984 28.6825C20.5845 28.1738 20.0666 27.6536 19.5791 27.0801L19.5715 27.0725C19.48 26.9624 19.491 26.8025 19.6009 26.7071C19.6615 26.646 19.7526 26.6305 19.8324 26.6532Z" fill="#231F20"/>
</svg>
